<?xml version="1.0" encoding="UTF-8"?>
<svg version="1.1" xmlns="http://www.w3.org/2000/svg" width="600" height="600">
<path d="M0 0 C1.80210937 0.53753906 1.80210937 0.53753906 3.640625 1.0859375 C18.72809968 6.03322571 32.7895853 13.89482921 45 24 C46.10007592 24.88564589 47.20034391 25.77105323 48.30078125 26.65625 C70.17195878 44.4677537 88.06501128 70.45080345 95 98 C95.22413574 98.85416504 95.44827148 99.70833008 95.67919922 100.58837891 C101.51437173 123.48384647 102.6202672 147.92895838 97 171 C96.72591309 172.19351074 96.72591309 172.19351074 96.44628906 173.41113281 C87.96534096 209.54916292 66.75187142 238.21239375 38 261 C36.26838379 262.4136715 34.53925547 263.83039535 32.8125 265.25 C27.52392101 269.57770698 22.21952421 273.88578554 16.91455078 278.19335938 C11.2650574 282.7818077 5.62950595 287.38705127 0 292 C-2.75627679 294.25549403 -5.51290555 296.51055743 -8.26953125 298.765625 C-10.03822795 300.21297051 -11.80648543 301.66085301 -13.57421875 303.109375 C-19.73542439 308.15622207 -25.91345455 313.18203157 -32.09643555 318.20214844 C-35.90365071 321.29412879 -39.70606801 324.39171837 -43.5 327.5 C-63.14018572 343.57727346 -63.14018572 343.57727346 -72.125 350.5625 C-77.47489837 354.72647522 -82.63192325 359.07583295 -87.75048828 363.51977539 C-91.7438354 366.96979102 -95.82831488 370.26861795 -100 373.5 C-105.46046928 377.73165341 -110.73561266 382.13748785 -115.95874023 386.65795898 C-120.30856242 390.42071111 -124.7338263 394.07788787 -129.19921875 397.703125 C-133.00344275 400.82290702 -136.75343296 404.00490829 -140.49829102 407.19555664 C-141.99475402 408.46854784 -143.49725751 409.73442775 -145 411 C-145.91007813 411.76699219 -146.82015625 412.53398437 -147.7578125 413.32421875 C-150 415 -150 415 -152 415 C-155.04281705 399.46860674 -157.75178403 383.8962191 -160.328125 368.28125 C-160.7258651 365.87941744 -161.12371472 363.477603 -161.52166748 361.07580566 C-162.34693127 356.09102754 -163.17022301 351.10592864 -163.9921875 346.12060547 C-165.04572893 339.73234317 -166.10535195 333.34510576 -167.16652298 326.95810699 C-167.98599119 322.02070723 -168.80177193 317.08270357 -169.61647797 312.14451599 C-170.00595047 309.78717734 -170.39669202 307.43004799 -170.78873444 305.07313538 C-171.33336646 301.79612048 -171.87290343 298.51830607 -172.41113281 295.24023438 C-172.65417648 293.78784111 -172.65417648 293.78784111 -172.90213013 292.30610657 C-173.04780426 291.41243881 -173.19347839 290.51877106 -173.34356689 289.59802246 C-173.47110981 288.82610313 -173.59865273 288.05418381 -173.73006058 287.25887299 C-174.02150265 284.82006422 -174.04550024 282.45386562 -174 280 C-172.73929688 279.78085937 -171.47859375 279.56171875 -170.1796875 279.3359375 C-160.5662362 277.61520582 -151.06048565 275.65525132 -141.625 273.125 C-140.78437012 272.90505371 -139.94374023 272.68510742 -139.07763672 272.45849609 C-133.61321971 270.95023712 -128.39954774 269.01851001 -123.15380859 266.89013672 C-122.4633696 266.6118956 -121.7729306 266.33365448 -121.06156921 266.04698181 C-119.37364867 265.36646439 -117.68672141 264.68348415 -116 264 C-117.18718124 263.99780016 -117.18718124 263.99780016 -118.39834595 263.99555588 C-137.67033003 263.95847855 -156.94213298 263.89945152 -176.213974 263.81609726 C-185.53376549 263.77631486 -194.85347264 263.74391831 -204.17333984 263.72900391 C-212.29805129 263.71598325 -220.4225771 263.68900802 -228.54718399 263.64538693 C-232.84777456 263.6227814 -237.14813625 263.60708877 -241.4487915 263.60811615 C-245.50037817 263.6088633 -249.55145905 263.59089067 -253.60291481 263.55883217 C-255.08630884 263.55034424 -256.56975968 263.54857573 -258.05316734 263.55419731 C-274.31861985 263.60760612 -274.31861985 263.60760612 -280.54219055 257.48211288 C-285.07500641 252.26123032 -285.34986187 248.72465378 -285.27734375 241.98046875 C-284.90319591 237.95969692 -283.73305525 235.94882277 -281 233 C-280.195625 232.0925 -279.39125 231.185 -278.5625 230.25 C-271.16743432 224.4476077 -258.36022062 225.74495555 -249.453125 225.91015625 C-247.12109568 225.93055991 -244.78906435 225.95073551 -242.45703125 225.97070312 C-238.84088965 226.0142622 -235.22489376 226.06287203 -231.60888672 226.11645508 C-228.07780494 226.16489471 -224.54691929 226.19463783 -221.015625 226.22265625 C-219.94354797 226.24441422 -218.87147095 226.26617218 -217.76690674 226.28858948 C-209.97884062 226.33968591 -203.20638984 225.66062136 -197.0625 220.5625 C-192.34757394 214.70456157 -192.20979319 209.36867846 -193 202 C-195.29629459 197.05413474 -198.31323865 194.69239482 -203 192 C-206.05524829 190.9815839 -208.12002357 190.87288548 -211.31816101 190.86869812 C-212.42139206 190.86468994 -213.52462311 190.86068176 -214.6612854 190.85655212 C-215.8722287 190.85708084 -217.083172 190.85760956 -218.33081055 190.8581543 C-220.28812164 190.85282079 -222.24543272 190.84748131 -224.20274317 190.84191763 C-226.30800588 190.83671968 -228.41326233 190.83380667 -230.51852989 190.83133507 C-234.91065264 190.82541962 -239.30269458 190.80887302 -243.69477844 190.78999329 C-245.19937796 190.78365582 -246.70397754 190.7773302 -248.20857716 190.77101612 C-248.96212376 190.76785031 -249.71567037 190.7646845 -250.49205172 190.76142275 C-260.71628502 190.7193797 -270.94048095 190.68638665 -281.16479492 190.67407227 C-288.06228093 190.66567946 -294.95956699 190.64314249 -301.85695297 190.6047166 C-305.50471379 190.5849941 -309.15217598 190.57253851 -312.79999352 190.57755089 C-316.87434499 190.58308103 -320.94795568 190.55773873 -325.0222168 190.5300293 C-326.22303894 190.53663071 -327.42386108 190.54323212 -328.66107178 190.55003357 C-337.11174515 190.45573732 -342.5886436 189.26303656 -348.875 183.25 C-352.33070127 177.96480982 -353.52142345 173.58674923 -352.4375 167.3125 C-350.90896975 161.68209109 -347.68778569 159.19253872 -343.02000427 155.89442444 C-338.16003721 153.18115899 -333.3116595 153.45012047 -327.86743164 153.50170898 C-326.76735275 153.49619019 -325.66727386 153.49067139 -324.53385925 153.48498535 C-322.15328313 153.47568339 -319.77265723 153.47554519 -317.39207649 153.48357964 C-313.62111236 153.49622467 -309.85087854 153.48490481 -306.0799408 153.46754456 C-298.75377915 153.43812339 -291.4278307 153.4352201 -284.10163116 153.43719482 C-274.1460535 153.43868477 -264.19070153 153.42192874 -254.23519707 153.38105965 C-250.52598737 153.37123501 -246.81712782 153.37993196 -243.10792542 153.38975525 C-240.82593559 153.38360944 -238.54394766 153.37669718 -236.26196289 153.36889648 C-235.23573822 153.37661575 -234.20951355 153.38433502 -233.15219116 153.39228821 C-225.75695556 153.34023776 -219.89870567 152.52061363 -214.125 147.5 C-210.44490102 143.17047179 -208.93109401 139.67982192 -209 134 C-210.0971838 128.05939221 -212.11304891 123.75045084 -217 120 C-222.52577106 117.5353221 -227.87187075 117.72061099 -233.8046875 117.7265625 C-235.93620317 117.70627417 -238.06771356 117.6854234 -240.19921875 117.6640625 C-243.53894536 117.64148019 -246.87846228 117.62499393 -250.21826172 117.61914062 C-253.45578327 117.60958619 -256.69237557 117.57577639 -259.9296875 117.5390625 C-261.41443069 117.54663071 -261.41443069 117.54663071 -262.9291687 117.55435181 C-269.75943319 117.45808295 -275.33372944 116.31386183 -280.52267456 111.62368774 C-284.62422567 107.07822538 -286.06728192 103.11938039 -285.875 97.0625 C-284.91389662 91.28483258 -282.63993003 87.27178248 -277.9375 83.625 C-274.33446976 81.63183434 -271.71940824 80.87555456 -267.66699219 80.85523987 C-266.3389003 80.84489212 -266.3389003 80.84489212 -264.98397827 80.83433533 C-263.53011215 80.83041527 -263.53011215 80.83041527 -262.046875 80.82641602 C-261.02357086 80.819729 -260.00026672 80.81304199 -258.94595337 80.80615234 C-256.71811114 80.79208529 -254.49025436 80.78019653 -252.26239014 80.77020454 C-248.71995901 80.75376685 -245.1776328 80.7305195 -241.63525391 80.70530701 C-231.56060056 80.634666 -221.48590072 80.57487884 -211.41113281 80.52319336 C-205.24785499 80.49109452 -199.08469216 80.44972827 -192.92150879 80.40299797 C-190.58713896 80.38714041 -188.25274261 80.37474552 -185.91833496 80.36609077 C-158.65733016 80.26369507 -136.88587683 78.44293841 -112 66 C-131.8 66 -151.6 66 -172 66 C-167.55034212 58.58390354 -163.49378203 52.46505841 -158 46 C-157.31035156 45.18660156 -156.62070312 44.37320313 -155.91015625 43.53515625 C-129.69783603 13.53081864 -93.77130172 -3.77861519 -54.12402344 -6.859375 C-35.44038054 -8.09636101 -17.83138547 -5.39144792 0 0 Z M-102.25 90.375 C-109.60482467 99.06843285 -114.40160823 108.21893604 -118 119 C-118.23589844 119.69609375 -118.47179687 120.3921875 -118.71484375 121.109375 C-124.01339813 139.20954617 -120.17901922 158.95446156 -111.9375 175.4375 C-102.09588362 192.92207378 -86.71045717 206.19872189 -67.22241211 211.78295898 C-45.99735348 217.48133157 -26.03672024 214.97462172 -6.875 204.25 C10.27075275 193.50642736 22.07317919 177.5005635 27 158 C27.93402814 153.34437785 28.5744742 148.7280644 29 144 C29.0721875 143.236875 29.144375 142.47375 29.21875 141.6875 C29.94511263 125.70752221 23.83513973 109.01333389 15 96 C14.47664062 95.22914063 13.95328125 94.45828125 13.4140625 93.6640625 C2.55281164 78.72346859 -15.93621985 68.64733519 -34.07250977 65.65844727 C-60.19916484 62.19595242 -84.3566154 71.10254915 -102.25 90.375 Z " fill="#1369F0" transform="translate(481,96)"/>
<path d="M0 0 C13.52460253 3.79637966 25.17787228 11.21146527 36 20 C36.53898926 20.4321582 37.07797852 20.86431641 37.63330078 21.30957031 C60.26038472 39.51889171 78.83992717 65.55665834 86 94 C86.22413574 94.85416504 86.44827148 95.70833008 86.67919922 96.58837891 C92.51437173 119.48384647 93.6202672 143.92895838 88 167 C87.81727539 167.79567383 87.63455078 168.59134766 87.44628906 169.41113281 C78.96534096 205.54916292 57.75187142 234.21239375 29 257 C27.26838379 258.4136715 25.53925547 259.83039535 23.8125 261.25 C18.52392101 265.57770698 13.21952421 269.88578554 7.91455078 274.19335938 C2.2650574 278.7818077 -3.37049405 283.38705127 -9 288 C-11.75627679 290.25549403 -14.51290555 292.51055743 -17.26953125 294.765625 C-19.03822795 296.21297051 -20.80648543 297.66085301 -22.57421875 299.109375 C-28.73542439 304.15622207 -34.91345455 309.18203157 -41.09643555 314.20214844 C-44.90365071 317.29412879 -48.70606801 320.39171837 -52.5 323.5 C-72.14018572 339.57727346 -72.14018572 339.57727346 -81.125 346.5625 C-86.47489837 350.72647522 -91.63192325 355.07583295 -96.75048828 359.51977539 C-100.7438354 362.96979102 -104.82831488 366.26861795 -109 369.5 C-114.46046928 373.73165341 -119.73561266 378.13748785 -124.95874023 382.65795898 C-129.30856242 386.42071111 -133.7338263 390.07788787 -138.19921875 393.703125 C-142.00344275 396.82290702 -145.75343296 400.00490829 -149.49829102 403.19555664 C-152.62274827 405.85342828 -155.78359274 408.45417212 -159 411 C-159.66 410.67 -160.32 410.34 -161 410 C-149.30204006 379.7562497 -137.52736462 349.54364588 -125.67428589 319.36036682 C-121.73394627 309.32544252 -117.8022769 299.28713465 -113.8739624 289.24749756 C-113.12833289 287.34190093 -112.38260632 285.43634228 -111.63677979 283.53082275 C-107.60442105 273.22843015 -103.57884166 262.9234508 -99.56640625 252.61328125 C-98.84344422 250.75666549 -98.12046274 248.9000573 -97.39746094 247.04345703 C-96.05901092 243.60635137 -94.72266922 240.16843749 -93.38769531 236.72998047 C-89.38296749 226.43380114 -85.24461803 216.19960811 -81 206 C-80.00766357 206.22010742 -79.01532715 206.44021484 -77.99291992 206.66699219 C-54.82606693 211.77739884 -33.96632496 210.5752275 -13.44140625 197.7265625 C3.23335035 185.93417463 13.74270551 170.23584092 17.75390625 150.2421875 C18.28098572 146.82907147 18.69047248 143.43919472 19 140 C19.0721875 139.236875 19.144375 138.47375 19.21875 137.6875 C20.10246228 118.24582984 11.52040611 99.30903556 -1 85 C-1 84.34 -1 83.68 -1 83 C-1.5775 82.73574219 -2.155 82.47148437 -2.75 82.19921875 C-5.10251404 80.94536144 -6.9482467 79.51063673 -9 77.8125 C-14.31445033 73.58933079 -20.0799321 70.29560464 -26 67 C-25.27104641 62.13686426 -23.48138114 57.79100332 -21.68359375 53.24609375 C-21.18147118 51.9627993 -21.18147118 51.9627993 -20.66920471 50.65357971 C-19.5958304 47.91335407 -18.51668361 45.1754422 -17.4375 42.4375 C-16.73856874 40.65443934 -16.03999781 38.87123739 -15.34179688 37.08789062 C-13.23824149 31.72114245 -11.12065081 26.36001169 -9 21 C-8.62530579 20.05086731 -8.25061157 19.10173462 -7.86456299 18.12384033 C-6.7576815 15.32227776 -5.6470259 12.52224235 -4.53515625 9.72265625 C-4.1946373 8.86006699 -3.85411835 7.99747772 -3.50328064 7.10874939 C-3.18903641 6.32013016 -2.87479218 5.53151093 -2.55102539 4.71899414 C-2.13670006 3.67467979 -2.13670006 3.67467979 -1.71400452 2.60926819 C-1 1 -1 1 0 0 Z " fill="#0951BD" transform="translate(490,100)"/>
<path d="M0 0 C1.08154861 -0.00960754 2.16309723 -0.01921509 3.27742004 -0.02911377 C4.44617172 -0.03336365 5.6149234 -0.03761353 6.8190918 -0.04199219 C8.02139938 -0.04769226 9.22370697 -0.05339233 10.46244812 -0.05926514 C13.00864786 -0.06871794 15.55485985 -0.07525023 18.10107422 -0.07910156 C21.99232388 -0.0888024 25.88304437 -0.11982218 29.77416992 -0.15136719 C32.24747408 -0.15789773 34.72078201 -0.163148 37.1940918 -0.16699219 C38.35677078 -0.17933899 39.51944977 -0.19168579 40.71736145 -0.20440674 C47.44928592 -0.1858888 52.44265157 0.08952195 57.5690918 4.91503906 C58.04733398 5.511875 58.52557617 6.10871094 59.01831055 6.72363281 C59.75500977 7.62275391 59.75500977 7.62275391 60.5065918 8.54003906 C63.75315876 12.92872078 63.21396877 17.91258435 62.70581055 23.16113281 C60.95057693 28.86035521 56.74815257 32.32993381 51.70581055 35.16113281 C48.75052572 36.14622775 46.78647508 36.29876695 43.70288086 36.32226562 C42.68462219 36.33187317 41.66636353 36.34148071 40.61724854 36.35137939 C39.51725525 36.35562927 38.41726196 36.35987915 37.28393555 36.36425781 C36.15058777 36.36995789 35.01723999 36.37565796 33.84954834 36.38153076 C31.44878066 36.39098309 29.04799999 36.39751566 26.6472168 36.40136719 C22.98422414 36.41105764 19.32179613 36.44207343 15.65893555 36.47363281 C13.32560554 36.48016449 10.99227153 36.48541431 8.65893555 36.48925781 C7.56703918 36.50160461 6.47514282 36.51395142 5.35015869 36.52667236 C-2.12586546 36.50490789 -7.11472817 35.76251022 -13.04418945 30.91113281 C-16.43008855 26.77281169 -18.05645792 23.02902342 -18.73168945 17.72363281 C-18.00249502 11.78590669 -15.78776707 7.16617379 -11.23168945 3.22363281 C-7.31236121 0.47176404 -4.6701921 0.03348498 0 0 Z " fill="#1369F0" transform="translate(34.294189453125,249.8388671875)"/>
<path d="M0 0 C2.01037607 -0.03376107 4.02079425 -0.06512431 6.03125 -0.09375 C7.39830078 -0.1261377 7.39830078 -0.1261377 8.79296875 -0.15917969 C15.51693996 -0.19145872 23.17955826 0.27233383 28.47998047 4.83300781 C32.2991806 9.01405221 34.3178976 12.85204404 34.84375 18.53125 C34.37491564 23.96972859 32.73062593 27.69034608 29.28125 31.90625 C22.54264786 37.41965175 16.38689275 37.61327188 7.97265625 37.58984375 C6.31797585 37.59770653 6.31797585 37.59770653 4.62986755 37.60572815 C2.30427896 37.61213218 -0.02134209 37.61083242 -2.34692383 37.60229492 C-5.89137842 37.5937857 -9.43421999 37.62257013 -12.97851562 37.65429688 C-15.24479119 37.65590917 -17.51106958 37.65533082 -19.77734375 37.65234375 C-20.82965683 37.66357773 -21.88196991 37.67481171 -22.96617126 37.68638611 C-30.63221324 37.61431714 -36.32141107 36.30358893 -41.84375 30.78125 C-45.22571122 25.31808188 -45.89046342 20.91992155 -45.06640625 14.62109375 C-43.74989877 9.19157598 -40.96198614 6.25128983 -36.5390625 3.0078125 C-31.47353349 0.24034912 -26.11644501 0.47797206 -20.46875 0.40625 C-19.33115234 0.37950195 -18.19355469 0.35275391 -17.02148438 0.32519531 C-14.6655503 0.27488835 -12.30939036 0.23426507 -9.953125 0.203125 C-6.63447707 0.15847951 -3.31790742 0.08172186 0 0 Z " fill="#1369F0" transform="translate(140.46875,321.84375)"/>
<path d="M0 0 C1.01503098 -0.01283524 2.03006195 -0.02567047 3.07585144 -0.03889465 C4.72113579 -0.04997505 4.72113579 -0.04997505 6.3996582 -0.0612793 C8.09612236 -0.07338692 8.09612236 -0.07338692 9.82685852 -0.08573914 C12.22342395 -0.09957816 14.62000908 -0.11030112 17.01660156 -0.11816406 C20.66875978 -0.13534898 24.32000626 -0.17923513 27.97192383 -0.22338867 C30.30199531 -0.23351824 32.63207447 -0.24203352 34.9621582 -0.2487793 C36.04889328 -0.26628738 37.13562836 -0.28379547 38.2552948 -0.30183411 C46.04554817 -0.279724 51.70966284 0.96065367 57.38793945 6.48950195 C60.48222059 11.60696691 61.55514848 16.34425676 60.53637695 22.1965332 C59.07451861 27.72759425 56.92936474 30.94322369 52.09350586 33.84692383 C46.50868168 36.81265901 41.44284004 36.86812231 35.22387695 36.77075195 C33.56988388 36.77081238 33.56988388 36.77081238 31.88247681 36.77087402 C29.56457786 36.76553953 27.24667809 36.74804638 24.92895508 36.71899414 C21.39128117 36.67704158 17.8555085 36.67794097 14.31762695 36.68481445 C12.05719713 36.67432383 9.79677705 36.66138642 7.53637695 36.64575195 C6.4851767 36.64555054 5.43397644 36.64534912 4.35092163 36.6451416 C-2.31136072 36.53822135 -7.62701371 35.99180792 -12.9128418 31.5637207 C-17.06370069 26.47745698 -19.3011235 22.40930054 -18.86206055 15.67700195 C-18.0083902 9.83868174 -15.63707698 6.42293273 -10.92456055 2.86450195 C-7.08280113 0.65753378 -4.35422924 0.04800085 0 0 Z " fill="#1369F0" transform="translate(113.987060546875,176.822998046875)"/>
</svg>
